<svg width="13" height="14" viewBox="0 0 13 14" fill="none" xmlns="http://www.w3.org/2000/svg">
<path d="M11.8368 13.6666H1.17008C0.801898 13.6666 0.503418 13.3681 0.503418 12.9999V0.999919C0.503418 0.631732 0.801898 0.333252 1.17008 0.333252H11.8368C12.205 0.333252 12.5034 0.631732 12.5034 0.999919V12.9999C12.5034 13.3681 12.205 13.6666 11.8368 13.6666ZM11.1701 12.3333V1.66659H1.83675V12.3333H11.1701ZM4.50342 2.99992V4.33325C4.50342 5.43782 5.39883 6.33325 6.50343 6.33325C7.60796 6.33325 8.50343 5.43782 8.50343 4.33325V2.99992H9.83676V4.33325C9.83676 6.17418 8.34436 7.66658 6.50343 7.66658C4.66247 7.66658 3.17008 6.17418 3.17008 4.33325V2.99992H4.50342Z" fill="#878787"/>
</svg>
