<svg width="15" height="16" viewBox="0 0 15 16" fill="none" xmlns="http://www.w3.org/2000/svg">
<path d="M7.5 15.5C3.35786 15.5 0 12.1421 0 8C0 3.85786 3.35786 0.5 7.5 0.5C11.6421 0.5 15 3.85786 15 8C15 12.1421 11.6421 15.5 7.5 15.5ZM7.5 14C10.8137 14 13.5 11.3137 13.5 8C13.5 4.68629 10.8137 2 7.5 2C4.18629 2 1.5 4.68629 1.5 8C1.5 11.3137 4.18629 14 7.5 14ZM3.75 8H5.25C5.25 9.24267 6.25733 10.25 7.5 10.25C8.74267 10.25 9.75 9.24267 9.75 8H11.25C11.25 10.071 9.57105 11.75 7.5 11.75C5.42894 11.75 3.75 10.071 3.75 8Z" fill="#878787"/>
</svg>
