<svg width="13" height="15" viewBox="0 0 13 15" fill="none" xmlns="http://www.w3.org/2000/svg">
<path d="M1.16667 0.333252H11.8333C12.2015 0.333252 12.5 0.631732 12.5 0.999919V13.8508C12.5 14.0349 12.3507 14.1842 12.1667 14.1842C12.1199 14.1842 12.0736 14.1743 12.0309 14.1552L6.5 11.6875L0.969153 14.1552C0.801033 14.2303 0.60394 14.1547 0.528927 13.9867C0.509853 13.9439 0.5 13.8976 0.5 13.8508V0.999919C0.5 0.631732 0.79848 0.333252 1.16667 0.333252ZM11.1667 12.3096V1.66659H1.83333V12.3096L6.5 10.2274L11.1667 12.3096ZM6.5 7.99992L4.54071 9.02999L4.91491 6.84825L3.32981 5.3032L5.52033 4.98489L6.5 2.99992L7.47967 4.98489L9.6702 5.3032L8.08507 6.84825L8.45927 9.02999L6.5 7.99992Z" fill="#878787"/>
</svg>
